<?xml version="1.0" encoding="UTF-8"?>
<svg width="387px" height="323px" viewBox="0 0 387 323" version="1.1" xmlns="http://www.w3.org/2000/svg" xmlns:xlink="http://www.w3.org/1999/xlink">
    <title>4</title>
    <g id="Latest-Landing" stroke="none" stroke-width="1" fill="none" fill-rule="evenodd" stroke-linecap="round" stroke-linejoin="round">
        <g id="Group" transform="translate(44.000000, 12.000000)" fill-rule="nonzero" stroke="#0D052C" stroke-width="0.5">
            <g id="18" transform="translate(150.000000, 150.000000) rotate(25.000000) translate(-150.000000, -150.000000) ">
                <g id="cassette" transform="translate(-18.000000, 40.000000)">
                    <path d="M25.74,0 L317.84,0 C327.145998,0 334.69,7.54400197 334.69,16.85 L334.69,194.3 C334.69,203.605998 327.145998,211.15 317.84,211.15 L25.74,211.15 C16.434002,211.15 8.89,203.605998 8.89,194.3 L8.89,16.85 C8.89,7.54400197 16.434002,0 25.74,0 Z" id="shadow" fill="#1D1E5F"></path>
                    <path d="M16.85,8.2 L308.95,8.2 C318.255998,8.2 325.8,15.744002 325.8,25.05 L325.8,202.5 C325.8,211.805998 318.255998,219.35 308.95,219.35 L16.85,219.35 C7.54400197,219.35 1.44950718e-12,211.805998 1.44950718e-12,202.5 L1.44950718e-12,25.05 C1.44950718e-12,15.744002 7.54400197,8.2 16.85,8.2 Z" id="Rectangle" fill="#9E59FF"></path>
                    <circle id="Oval" fill="#FFFFFF" cx="16.38" cy="204.51" r="6.11"></circle>
                    <line x1="12.79" y1="199.57" x2="19.97" y2="209.45" id="Path"></line>
                    <circle id="Oval" fill="#FFFFFF" cx="311.7" cy="204.51" r="6.11"></circle>
                    <line x1="308.11" y1="199.57" x2="315.29" y2="209.45" id="Path"></line>
                    <circle id="Oval" fill="#FFFFFF" cx="15.01" cy="21.36" r="6.11"></circle>
                    <line x1="11.42" y1="16.42" x2="18.6" y2="26.3" id="Path"></line>
                    <circle id="Oval" fill="#FFFFFF" cx="310.33" cy="21.36" r="6.11"></circle>
                    <line x1="306.74" y1="16.42" x2="313.92" y2="26.3" id="Path"></line>
                    <polygon id="Rectangle" fill="#FF5986" points="39.65 8.2 58.36 8.2 58.36 19.03 39.65 19.03"></polygon>
                    <polygon id="Rectangle" fill="#FF5986" points="266.98 8.2 285.69 8.2 285.69 19.03 266.98 19.03"></polygon>
                    <path d="M280.03,219.35 L45.3,219.35 L58.74,171.1 C59.7012939,167.654549 62.8329956,165.265963 66.41,165.25 L258.93,165.25 C262.498583,165.26216 265.627576,167.636441 266.6,171.07 L280.03,219.35 Z" id="Path" fill="#FFB8D2"></path>
                    <line x1="224" y1="174" x2="267.41" y2="174" id="Path"></line>
                    <line x1="57.93" y1="174" x2="213.99" y2="174" id="Path"></line>
                    <line x1="55.57" y1="182.47" x2="269.77" y2="182.47" id="Path"></line>
                    <line x1="52.96" y1="191.86" x2="272.38" y2="191.86" id="Path"></line>
                    <line x1="50.35" y1="201.24" x2="274.99" y2="201.24" id="Path"></line>
                    <line x1="152.53" y1="210.62" x2="277.6" y2="210.62" id="Path"></line>
                    <line x1="47.73" y1="210.62" x2="141.71" y2="210.62" id="Path"></line>
                    <circle id="Oval" fill="#FFFEAA" cx="117.28" cy="196.88" r="5.94"></circle>
                    <circle id="Oval" fill="#FFFEAA" cx="86.92" cy="206.08" r="5.94"></circle>
                    <circle id="Oval" fill="#FFFEAA" cx="208.05" cy="196.88" r="5.94"></circle>
                    <circle id="Oval" fill="#FFFEAA" cx="238.42" cy="206.08" r="5.94"></circle>
                    <path d="M306.74,99.86 L306.74,153.59 C306.74,155.635078 305.08507,157.294488 303.04,157.3 L22.3,157.3 C20.2510236,157.3 18.59,155.638976 18.59,153.59 L18.59,99.86 L306.74,99.86 Z" id="Path" fill="#53F2D4"></path>
                    <path d="M306.740005,44.91 L306.740005,99.91 L18.59,99.91 L18.59,44.79 C18.59,43.9136044 18.9973529,43.0869462 19.69,42.55 L37.19,29.0799517 L287.09,29.0799517 C287.773814,29.0761595 288.439208,29.3014784 288.98,29.72 L305.54,42.46 C306.298371,43.0463223 306.740005,43.9514086 306.740005,44.91 Z" id="Path" fill="#FFE483"></path>
                    <polygon id="Rectangle" fill="#FFB8D2" points="147.15 141.41 178.64 141.41 178.64 150.31 147.15 150.31"></polygon>
                    <line x1="47.27" y1="41.77" x2="277.39" y2="41.77" id="Path"></line>
                    <line x1="47.61" y1="52.42" x2="277.73" y2="52.42" id="Path"></line>
                    <line x1="281" y1="130.42" x2="291.07" y2="143.42" id="Path"></line>
                    <line x1="287.95" y1="130.88" x2="290.44" y2="134.08" id="Path"></line>
                    <line x1="278.94" y1="136.29" x2="284.32" y2="143.23" id="Path"></line>
                    <path d="M66.2,67.4 L258.45,67.4 C260.112377,67.4 261.46,68.7476229 261.46,70.41 L261.46,131.24 C261.46,132.902377 260.112377,134.25 258.45,134.25 L66.2,134.25 C64.5376229,134.25 63.19,132.902377 63.19,131.24 L63.19,70.41 C63.19,68.7476229 64.5376229,67.4 66.2,67.4 Z" id="Rectangle" fill="#62A3FF"></path>
                    <path d="M152.530238,99.64 C152.550365,111.747766 149.480138,123.660387 143.61,134.25 L66.25,134.25 C64.5931458,134.25 63.25,132.906854 63.25,131.25 L63.25,70.41 C63.25,68.7531458 64.5931458,67.41 66.25,67.41 L144.9,67.41 C149.944713,77.403018 152.558951,88.4458634 152.530238,99.64 L152.530238,99.64 Z" id="Path" fill="#1D1E5F"></path>
                    <circle id="Oval" fill="#FF5986" cx="101.49" cy="99.85" r="24.52"></circle>
                    <circle id="Oval" fill="#FFFFFF" cx="101.49" cy="99.85" r="19.16"></circle>
                    <line x1="101.49" y1="80.69" x2="101.49" y2="86.84" id="Path"></line>
                    <line x1="101.49" y1="112.87" x2="101.49" y2="118.55" id="Path"></line>
                    <line x1="82.33" y1="99.85" x2="88.47" y2="99.85" id="Path"></line>
                    <line x1="114.51" y1="99.85" x2="120.66" y2="99.85" id="Path"></line>
                    <line x1="87.64" y1="86.55" x2="92.52" y2="90.42" id="Path"></line>
                    <line x1="115.35" y1="86.55" x2="110.47" y2="90.43" id="Path"></line>
                    <line x1="87.64" y1="113.16" x2="92.52" y2="109.29" id="Path"></line>
                    <line x1="115.35" y1="113.16" x2="110.47" y2="109.29" id="Path"></line>
                    <path d="M261.46,81.54 L261.46,120.64 C258.696538,125.920734 254.849311,130.558534 250.17,134.25 L197.83,134.25 C187.56201,126.144246 181.627993,113.739264 181.761055,100.658088 C181.894118,87.5769117 188.079248,75.2952062 198.51,67.4 L249.51,67.4 C254.489933,71.17168 258.571282,76.0009922 261.46,81.54 Z" id="Path" fill="#1D1E5F"></path>
                    <circle id="Oval" fill="#FF5986" cx="224" cy="100.5" r="24.52"></circle>
                    <circle id="Oval" fill="#FFFFFF" cx="224" cy="100.5" r="19.16"></circle>
                    <line x1="224" y1="81.34" x2="224" y2="87.48" id="Path"></line>
                    <line x1="224" y1="113.52" x2="224" y2="119.19" id="Path"></line>
                    <line x1="204.84" y1="100.5" x2="210.98" y2="100.5" id="Path"></line>
                    <line x1="237.02" y1="100.5" x2="243.17" y2="100.5" id="Path"></line>
                    <line x1="210.15" y1="87.2" x2="215.03" y2="91.06" id="Path"></line>
                    <line x1="237.86" y1="87.2" x2="232.98" y2="91.07" id="Path"></line>
                    <line x1="210.15" y1="113.8" x2="215.03" y2="109.93" id="Path"></line>
                    <line x1="237.86" y1="113.8" x2="232.98" y2="109.93" id="Path"></line>
                </g>
            </g>
        </g>
    </g>
</svg>