<?xml version="1.0" encoding="UTF-8"?>
<svg width="310px" height="232px" viewBox="0 0 310 232" version="1.1" xmlns="http://www.w3.org/2000/svg" xmlns:xlink="http://www.w3.org/1999/xlink">
    <title>6</title>
    <g id="Latest-Landing" stroke="none" stroke-width="1" fill="none" fill-rule="evenodd" stroke-linecap="round" stroke-linejoin="round">
        <g id="Group" transform="translate(23.000000, -16.000000)" fill-rule="nonzero" stroke="#0F052E" stroke-width="1.5">
            <g id="Shapes-/-colored-cylinder" transform="translate(-22.880000, 16.720000)">
                <path d="M301.576,212.4848 C289.456665,230.886615 264.715013,235.980716 246.312,223.8632 L225.0072,209.836 C243.041689,217.328138 263.855051,210.920459 274.55315,194.582602 C285.251249,178.244744 282.8032,156.605395 268.7256,143.0704 L290.1976,157.212 C308.600507,169.334672 313.694359,194.079052 301.576,212.4848 Z" id="light_pink_part" fill="#FFB4D3"></path>
                <path d="M281.177677,172.3392 C281.171987,185.903157 274.395115,198.568912 263.113844,206.099774 C251.832572,213.630637 237.536329,215.032335 225.0072,209.836 L187.5808,185.196 C205.644356,192.70355 226.493086,186.260972 237.172104,169.871526 C247.851122,153.48208 245.322895,131.80757 231.1584,118.316 L268.7256,143.0528 C276.700413,150.705596 281.1992,161.286487 281.177677,172.3392 Z" id="green_part" fill="#1EE79C"></path>
                <path d="M243.689665,147.664 C243.689665,161.218199 236.925799,173.878444 225.658093,181.412044 C214.390387,188.945643 200.106067,190.358555 187.5808,185.1784 L187.5808,185.1784 L146.2824,157.9864 C164.394378,165.363626 185.191799,158.778292 195.756697,142.320767 C206.321596,125.863243 203.650451,104.212277 189.4024,90.816 L231.1848,118.3336 C239.190122,125.987953 243.709449,136.588174 243.689665,147.664 L243.689665,147.664 Z" id="yellow_part" fill="#FFE372"></path>
                <path d="M202.136014,120.3488 C202.126568,133.852993 195.408146,146.469991 184.208752,154.015645 C173.009358,161.561298 158.792767,163.04938 146.2736,157.9864 L146.2736,157.9864 L104.3416,130.372 C122.348124,137.9514 143.199513,131.632704 153.969817,115.332927 C164.740121,99.0331494 162.375415,77.3740973 148.3416,63.7824 L189.376,90.816 C197.526536,98.4748129 202.145143,109.1645 202.136014,120.3488 Z" id="violet_part" fill="#A955FF"></path>
                <path d="M160.65283,92.928 C160.644497,106.519253 153.838014,119.205388 142.518262,126.727717 C131.19851,134.250046 116.866262,135.611259 104.3328,130.3544 L63.9936,103.84 C82.0234678,111.423876 102.897806,105.075155 113.651994,88.7368947 C124.406183,72.3986346 121.983238,50.7151481 107.888,37.1536 L148.2976,63.7648 C156.205897,71.404378 160.666152,81.9323586 160.65283,92.928 Z" id="light_blue_part" fill="#7AF6FF"></path>
                <path d="M120.269621,66.3344 C120.272791,79.9244939 113.481098,92.616268 102.172368,100.153064 C90.8636378,107.689859 76.5355643,109.073526 63.9936,103.84 L63.9936,103.84 L18.3656,73.7528 C36.4856412,85.8976449 60.9993522,81.2473149 73.4127447,63.3101792 C85.8261372,45.3730434 81.5414506,20.792786 63.7912,8.1136 L107.888,37.1536 C115.810415,44.7929514 120.280824,55.328755 120.269621,66.3344 L120.269621,66.3344 Z" id="pink_part" fill="#FF78B0"></path>
                <path d="M80.4936111,40.5768 C80.5070767,58.719611 68.2888093,74.5915701 50.746224,79.2196878 C33.2036387,83.8478055 14.7457524,76.0688866 5.80747242,60.2806338 C-3.13080755,44.4923811 -0.303003459,24.6628912 12.6922253,12.0024883 C25.6874541,-0.65791461 45.5839878,-2.96726336 61.1336,6.38 C61.1752254,6.39325656 61.2140195,6.41414569 61.248,6.4416 L63.7736,8.1224 C74.271093,15.5968656 80.5013805,27.6901816 80.4936111,40.5768 Z" id="white_circle" fill="#FFFFFF"></path>
                <g id="lines" transform="translate(28.160000, 26.400000)">
                    <line x1="3.6344" y1="0.8008" x2="19.0696" y2="20.7152" id="Path"></line>
                    <line x1="14.2912" y1="1.496" x2="18.1016" y2="6.4064" id="Path"></line>
                    <line x1="0.484" y1="9.7944" x2="8.7296" y2="20.4248" id="Path"></line>
                </g>
                <g id="line" transform="translate(210.320000, 129.360000)">
                    <path d="M11.6336,9.0552 C11.6368204,6.22565128 11.2940094,3.40632664 10.6128,0.66" id="Path"></path>
                    <path d="M0.6688,34.32 C6.47898279,28.8979957 10.2400234,21.6370115 11.3168,13.7632" id="Path"></path>
                </g>
            </g>
        </g>
    </g>
</svg>