<?xml version="1.0" encoding="UTF-8"?>
<svg width="136px" height="135px" viewBox="0 0 136 135" version="1.1" xmlns="http://www.w3.org/2000/svg" xmlns:xlink="http://www.w3.org/1999/xlink">
    <title>Shapes / three-dimensional square with a hole inside Copy 2</title>
    <g id="Latest-Landing" stroke="none" stroke-width="1" fill="none" fill-rule="evenodd" stroke-linecap="round" stroke-linejoin="round">
        <g id="Artboard" transform="translate(-1720.000000, -1886.000000)" fill-rule="nonzero" stroke="#0F052E" stroke-width="1.5">
            <g id="Background-items" transform="translate(-114.000000, 1879.000000)">
                <g id="Group" transform="translate(1828.000000, 0.000000)">
                    <g id="Shapes-/-yellow--shape" transform="translate(6.413333, 7.400000)">
                        <polygon id="yellow_L-shape" fill="#FFE372" points="0.37 51.6026667 0.37 101.4096 101.4096 101.4096 101.4096 0.37 51.6026667 0.37 51.6026667 51.6026667"></polygon>
                        <polygon id="green_part" fill="#1EE79C" points="101.4096 0.37 134.778667 33.3888 134.660267 133.372667 33.6206667 133.372667 0.37 101.4096 101.4096 101.4096"></polygon>
                        <g id="lines" transform="translate(23.680000, 27.626667)">
                            <line x1="110.980267" y1="31.3809333" x2="77.7296" y2="0.4736" id="Path"></line>
                            <line x1="110.368533" y1="56.2893333" x2="78.4498667" y2="26.5314667" id="Path"></line>
                            <line x1="110.368533" y1="80.142" x2="78.4498667" y2="50.9712" id="Path"></line>
                            <line x1="110.980267" y1="105.746" x2="77.0932" y2="73.7829333" id="Path"></line>
                            <line x1="83.8173333" y1="105.746" x2="49.5602667" y2="73.7829333" id="Path"></line>
                            <line x1="59.0273333" y1="105.400667" x2="25.9542667" y2="73.7829333" id="Path"></line>
                            <line x1="33.7637333" y1="105.746" x2="0.345333333" y2="73.7829333" id="Path"></line>
                        </g>
                    </g>
                </g>
            </g>
        </g>
    </g>
</svg>