<?xml version="1.0" encoding="UTF-8"?>
<svg width="290px" height="292px" viewBox="0 0 290 292" version="1.1" xmlns="http://www.w3.org/2000/svg" xmlns:xlink="http://www.w3.org/1999/xlink">
    <title>1</title>
    <g id="Latest-Landing" stroke="none" stroke-width="1" fill="none" fill-rule="evenodd" stroke-linecap="round" stroke-linejoin="round">
        <g id="Group" transform="translate(-6.000000, -4.000000)" fill-rule="nonzero" stroke="#0D052C" stroke-width="1.5">
            <g id="Shapes-/-plus" transform="translate(6.000000, 4.000000)">
                <path d="M251.09,126.59 L251.09,205.5 L165.38,205.5 L165.38,291.21 L93.13,291.21 C91.361006,291.21 89.6644654,290.50727 88.4135978,289.256402 C87.1627301,288.005535 86.46,286.308994 86.46,284.54 L86.46,205.54 L4.58,205.54 C2.46474941,205.54 0.75,203.825251 0.75,201.71 L0.75,126.59 L86.46,126.59 L86.46,40.88 L165.38,40.88 L165.38,126.59 L251.09,126.59 Z" id="Path" fill="#FFE483"></path>
                <path d="M0.75,126.59 L38.65,86.26 C41.379445,83.3507462 45.1908111,81.7 49.18,81.7 L86.46,81.7 L86.46,126.59 L0.75,126.59 Z" id="Path" fill="#1D1E5F"></path>
                <path d="M288.500005,92.51 L288.500005,156.13 C288.500005,159.461632 287.320955,162.685759 285.17,165.23 L251.09,205.5 L251.09,126.58 L165.37,126.58 L165.37,40.88 L86.46,40.88 L123.18,3.55 C124.928213,1.75783987 127.326386,0.749997275 129.83,0.749997275 L199.28,0.749997275 C201.960203,0.749997275 204.134485,2.91980219 204.14,5.6 L204.14,81.69 L277.68,81.69 C280.550456,81.6873434 283.304109,82.8264513 285.333829,84.8561711 C287.363549,86.8858908 288.502657,89.639544 288.500005,92.51 L288.500005,92.51 Z" id="Path" fill="#1D1E5F"></path>
                <path d="M208.910004,205.5 L208.910004,239.86 C208.912929,244.434868 207.117091,248.827487 203.91,252.09 L165.39,291.21 L165.39,205.5 L208.910004,205.5 Z" id="Path" fill="#1D1E5F"></path>
                <line x1="86.46" y1="62.39" x2="165.38" y2="62.39" id="Path"></line>
                <line x1="86.1" y1="88.65" x2="165.38" y2="88.65" id="Path"></line>
                <line x1="87.83" y1="114.91" x2="164.35" y2="114.91" id="Path"></line>
                <line x1="1.37" y1="141.17" x2="250.1" y2="141.17" id="Path"></line>
                <line x1="0.75" y1="167.43" x2="250.1" y2="167.43" id="Path"></line>
                <line x1="0.75" y1="193.69" x2="250.1" y2="193.69" id="Path"></line>
                <line x1="87.12" y1="219.95" x2="164.82" y2="219.95" id="Path"></line>
                <line x1="87.12" y1="245.87" x2="164.82" y2="245.87" id="Path"></line>
                <line x1="87.12" y1="272.13" x2="165.38" y2="272.13" id="Path"></line>
            </g>
        </g>
    </g>
</svg>