<?xml version="1.0" encoding="UTF-8"?>
<svg width="83px" height="104px" viewBox="0 0 83 104" version="1.1" xmlns="http://www.w3.org/2000/svg" xmlns:xlink="http://www.w3.org/1999/xlink">
    <title>Sketch</title>
    <g id="Latest-Landing" stroke="none" stroke-width="1" fill="none" fill-rule="evenodd">
        <g id="Artboard" transform="translate(-965.000000, -2194.000000)">
            <g id="Group-13" transform="translate(877.000000, 2175.000000)">
                <g id="Sketch" transform="translate(89.811321, 20.226316)">
                    <g id="Group" fill="#2A2A76" stroke="#FFFFFF" stroke-width="1.244432">
                        <path d="M21.7012494,0 L79.7075472,0 L79.7075472,101.131579 L0.00814372191,101.131579 L0,21.4210856 M21.7012494,0 L21.7012494,21.4210856 L0,21.4210856 M21.7012494,0 L0,21.4210856" id="Shape"></path>
                    </g>
                    <g id="Group" transform="translate(14.594340, 34.834211)">
                        <polygon id="Path" stroke="#0F052E" stroke-width="0.5" fill="#7874FF" fill-rule="nonzero" stroke-linecap="round" stroke-linejoin="round" points="14.0330189 15.1697368 0 15.1697368 8.73764824 0.561842105"></polygon>
                        <polygon id="Path" stroke="#0F052E" stroke-width="0.5" fill="#FF78B0" fill-rule="nonzero" stroke-linecap="round" stroke-linejoin="round" points="25.259434 45.5092105 0 14.6078947 13.9993269 14.6078947"></polygon>
                        <polygon id="Path" stroke="#0F052E" stroke-width="0.5" fill="#6CD6FF" fill-rule="nonzero" stroke-linecap="round" stroke-linejoin="round" points="25.259434 0.561842105 13.7972652 15.1697368 8.41981132 0.561842105"></polygon>
                        <polyline id="Path" fill="#6CD6FF" fill-rule="nonzero" points="37.7621601 0.561842105 42.0990566 0.561842105 36.7215619 15.1697368 25.259434 0.561842105 35.3988286 0.561842105"></polyline>
                        <polyline id="Path" stroke="#0F052E" stroke-width="0.5" stroke-linecap="round" stroke-linejoin="round" points="37.7621601 0.561842105 42.0990566 0.561842105 36.7215619 15.1697368 25.259434 0.561842105 35.3988286 0.561842105"></polyline>
                        <polygon id="Path" stroke="#0F052E" stroke-width="0.5" fill="#7874FF" fill-rule="nonzero" stroke-linecap="round" stroke-linejoin="round" points="50.5188679 15.1697368 36.4858491 15.1697368 41.7812085 0.561842105"></polygon>
                        <polygon id="Path" stroke="#0F052E" stroke-width="0.5" fill="#FF78B0" fill-rule="nonzero" stroke-linecap="round" stroke-linejoin="round" points="50.5188679 14.6078947 25.259434 45.5092105 36.5195279 14.6078947"></polygon>
                        <polygon id="Path" stroke="#0F052E" stroke-width="0.5" fill="#FFB656" fill-rule="nonzero" stroke-linecap="round" stroke-linejoin="round" points="37.0471698 14.6078947 25.5400943 45.5092105 14.0330189 14.6078947"></polygon>
                        <polygon id="Path" stroke="#0F052E" stroke-width="0.5" fill="#7874FF" fill-rule="nonzero" stroke-linecap="round" stroke-linejoin="round" points="37.0471698 14.6078947 14.0330189 14.6078947 25.5400943 0"></polygon>
                        <line x1="24.1367925" y1="19.6644737" x2="25.259434" y2="25.8447368" id="Path" stroke="#0F052E" stroke-width="0.5" stroke-linecap="round" stroke-linejoin="round"></line>
                        <line x1="25.8207547" y1="19.6644737" x2="26.9433962" y2="24.1592105" id="Path" stroke="#0F052E" stroke-width="0.5" stroke-linecap="round" stroke-linejoin="round"></line>
                        <line x1="23.0141509" y1="19.6644737" x2="24.1367925" y2="24.7210526" id="Path" stroke="#0F052E" stroke-width="0.5" stroke-linecap="round" stroke-linejoin="round"></line>
                        <line x1="27.504717" y1="20.7881579" x2="21.8915094" y2="23.5973684" id="Path" stroke="#0F052E" stroke-width="0.5" stroke-linecap="round" stroke-linejoin="round"></line>
                        <line x1="25.259434" y1="20.7881579" x2="22.4528302" y2="21.9118421" id="Path" stroke="#0F052E" stroke-width="0.5" stroke-linecap="round" stroke-linejoin="round"></line>
                        <line x1="27.504717" y1="22.4736842" x2="24.6981132" y2="24.1592105" id="Path" stroke="#0F052E" stroke-width="0.5" stroke-linecap="round" stroke-linejoin="round"></line>
                        <path d="M16.2635465,4.22766258 C15.9347391,4.29177694 14.683783,4.6330058 14.327403,6.17121452 C14.3252772,6.1766318 14.3197752,6.18026316 14.313648,6.18026316 C14.3075207,6.18026316 14.3020187,6.1766318 14.299893,6.17121452 C13.932509,4.6330058 12.6925569,4.29177694 12.3637495,4.22766258 C12.3556215,4.22766258 12.3490566,4.22147141 12.3490566,4.21379198 C12.3490566,4.20617207 12.3556215,4.1999809 12.3637495,4.1999809 C12.6925569,4.13241378 13.9416373,3.79463769 14.299893,2.25640515 C14.3020187,2.25097002 14.3075207,2.24736842 14.313648,2.24736842 C14.3197752,2.24736842 14.3252772,2.25097002 14.327403,2.25640515 C14.683783,3.79463769 15.9347391,4.13241378 16.2635465,4.1999809 C16.2716745,4.1999809 16.2783019,4.20617207 16.2783019,4.21379198 C16.2783019,4.22147141 16.2716745,4.22766258 16.2635465,4.22766258 Z" id="Path" stroke="#0F052E" stroke-width="0.5" fill="#FFFFFF" fill-rule="nonzero" stroke-linecap="round" stroke-linejoin="round"></path>
                        <path d="M18.5170223,5.6282584 C17.9390992,5.75397348 17.5000736,6.1943145 17.4064402,6.74210526 C17.3105974,6.19239776 16.8678694,5.75188762 16.28708,5.6282584 C16.2822431,5.6282584 16.2783019,5.62459406 16.2783019,5.6200841 C16.2783019,5.61551777 16.2822431,5.61185343 16.28708,5.61185343 C16.8600467,5.4802754 17.2923843,5.03976526 17.383629,4.49473684 C17.4782775,5.04438797 17.9205875,5.48517998 18.5011978,5.60858371 C18.5275322,5.61348829 18.5275322,5.62498868 18.5170223,5.6282584 Z" id="Path" stroke="#0F052E" stroke-width="0.5" fill="#FFFFFF" fill-rule="nonzero" stroke-linecap="round" stroke-linejoin="round"></path>
                        <line x1="34.240566" y1="31.4631579" x2="35.3632075" y2="29.7776316" id="Path" stroke="#0F052E" stroke-width="0.5" stroke-linecap="round" stroke-linejoin="round"></line>
                        <line x1="30.3113208" y1="38.2052632" x2="33.6792453" y2="32.5868421" id="Path" stroke="#0F052E" stroke-width="0.5" stroke-linecap="round" stroke-linejoin="round"></line>
                        <line x1="15.1556604" y1="29.2157895" x2="25.259434" y2="45.5092105" id="Path" stroke="#0F052E" stroke-width="0.5" stroke-linecap="round" stroke-linejoin="round"></line>
                    </g>
                </g>
            </g>
        </g>
    </g>
</svg>