<?xml version="1.0" encoding="UTF-8"?>
<svg width="19px" height="27px" viewBox="0 0 19 27" version="1.1" xmlns="http://www.w3.org/2000/svg" xmlns:xlink="http://www.w3.org/1999/xlink">
    <title>Figma</title>
    <g id="Latest-Landing" stroke="none" stroke-width="1" fill="none" fill-rule="evenodd">
        <g id="Artboard" transform="translate(-513.000000, -6417.000000)" fill="#FFFFFF">
            <g id="Price-Table" transform="translate(320.000000, 5828.000000)">
                <g id="Group-20" transform="translate(100.000000, 422.000000)">
                    <g id="Figma" transform="translate(93.614990, 167.775635)">
                        <path d="M-1.79323223e-12,5.001315 C-1.79323223e-12,2.239975 2.23851,0.001465 4.99985,0.001465 L9.99971,0.001465 L9.99971,10.001165 L4.99985,10.001165 C2.23851,10.001165 -1.79323223e-12,7.762655 -1.79323223e-12,5.001315 Z M4.99985,2.001465 C3.34308,2.001465 2,3.344545 2,5.001315 C2,6.658085 3.34308,8.001155 4.99985,8.001155 L7.99969,8.001155 L7.99969,2.001465 L4.99985,2.001465 Z" id="Shape"></path>
                        <path d="M-1.79323223e-12,12.998665 C-1.79323223e-12,10.237265 2.23851,7.998775 4.99985,7.998775 L9.99971,7.998775 L9.99971,17.998465 L4.99985,17.998465 C2.23851,17.998465 -1.79323223e-12,15.759965 -1.79323223e-12,12.998665 Z M4.99985,9.998765 C3.34308,9.998765 2,11.341865 2,12.998665 C2,14.655365 3.34308,15.998465 4.99985,15.998465 L7.99969,15.998465 L7.99969,9.998765 L4.99985,9.998765 Z" id="Shape"></path>
                        <path d="M-1.79323223e-12,21.000065 C-1.79323223e-12,18.238765 2.23851,16.000265 4.99985,16.000265 L9.99971,16.000265 L9.99971,21.000065 C9.99971,23.761465 7.76119,25.999965 4.99985,25.999965 C2.23851,25.999965 -1.79323223e-12,23.761465 -1.79323223e-12,21.000065 Z M4.99985,18.000265 C3.34308,18.000265 2,19.343365 2,21.000065 C2,22.656865 3.34308,23.999965 4.99985,23.999965 C6.65662,23.999965 7.99969,22.656865 7.99969,21.000065 L7.99969,18.000265 L4.99985,18.000265 Z" id="Shape"></path>
                        <path d="M7.99829,-8.8817842e-14 L12.99811,-8.8817842e-14 C15.75951,-8.8817842e-14 17.99801,2.238505 17.99801,4.999845 C17.99801,7.761185 15.75951,9.999665 12.99811,9.999665 L7.99829,9.999665 L7.99829,-8.8817842e-14 Z M9.99831,1.999995 L9.99831,7.999695 L12.99811,7.999695 C14.65491,7.999695 15.99801,6.656615 15.99801,4.999845 C15.99801,3.343075 14.65491,1.999995 12.99811,1.999995 L9.99831,1.999995 Z" id="Shape"></path>
                        <path d="M7.99829,12.998665 C7.99829,10.237265 10.23681,7.998775 12.99811,7.998775 C15.75951,7.998775 17.99801,10.237265 17.99801,12.998665 C17.99801,15.759965 15.75951,17.998465 12.99811,17.998465 C10.23681,17.998465 7.99829,15.759965 7.99829,12.998665 Z M12.99811,9.998765 C11.34141,9.998765 9.99831,11.341865 9.99831,12.998665 C9.99831,14.655365 11.34141,15.998465 12.99811,15.998465 C14.65491,15.998465 15.99801,14.655365 15.99801,12.998665 C15.99801,11.341865 14.65491,9.998765 12.99811,9.998765 Z" id="Shape"></path>
                        <path d="M-1.79323223e-12,5.001315 C-1.79323223e-12,2.239975 2.23851,0.001465 4.99985,0.001465 L9.99971,0.001465 L9.99971,10.001165 L4.99985,10.001165 C2.23851,10.001165 -1.79323223e-12,7.762655 -1.79323223e-12,5.001315 Z M4.99985,2.001465 C3.34308,2.001465 2,3.344545 2,5.001315 C2,6.658085 3.34308,8.001155 4.99985,8.001155 L7.99969,8.001155 L7.99969,2.001465 L4.99985,2.001465 Z" id="Shape"></path>
                        <path d="M-1.79323223e-12,12.998665 C-1.79323223e-12,10.237265 2.23851,7.998775 4.99985,7.998775 L9.99971,7.998775 L9.99971,17.998465 L4.99985,17.998465 C2.23851,17.998465 -1.79323223e-12,15.759965 -1.79323223e-12,12.998665 Z M4.99985,9.998765 C3.34308,9.998765 2,11.341865 2,12.998665 C2,14.655365 3.34308,15.998465 4.99985,15.998465 L7.99969,15.998465 L7.99969,9.998765 L4.99985,9.998765 Z" id="Shape"></path>
                        <path d="M-1.79323223e-12,21.000065 C-1.79323223e-12,18.238765 2.23851,16.000265 4.99985,16.000265 L9.99971,16.000265 L9.99971,21.000065 C9.99971,23.761465 7.76119,25.999965 4.99985,25.999965 C2.23851,25.999965 -1.79323223e-12,23.761465 -1.79323223e-12,21.000065 Z M4.99985,18.000265 C3.34308,18.000265 2,19.343365 2,21.000065 C2,22.656865 3.34308,23.999965 4.99985,23.999965 C6.65662,23.999965 7.99969,22.656865 7.99969,21.000065 L7.99969,18.000265 L4.99985,18.000265 Z" id="Shape"></path>
                        <path d="M7.99829,-8.8817842e-14 L12.99811,-8.8817842e-14 C15.75951,-8.8817842e-14 17.99801,2.238505 17.99801,4.999845 C17.99801,7.761185 15.75951,9.999665 12.99811,9.999665 L7.99829,9.999665 L7.99829,-8.8817842e-14 Z M9.99831,1.999995 L9.99831,7.999695 L12.99811,7.999695 C14.65491,7.999695 15.99801,6.656615 15.99801,4.999845 C15.99801,3.343075 14.65491,1.999995 12.99811,1.999995 L9.99831,1.999995 Z" id="Shape"></path>
                        <path d="M7.99829,12.998665 C7.99829,10.237265 10.23681,7.998775 12.99811,7.998775 C15.75951,7.998775 17.99801,10.237265 17.99801,12.998665 C17.99801,15.759965 15.75951,17.998465 12.99811,17.998465 C10.23681,17.998465 7.99829,15.759965 7.99829,12.998665 Z M12.99811,9.998765 C11.34141,9.998765 9.99831,11.341865 9.99831,12.998665 C9.99831,14.655365 11.34141,15.998465 12.99811,15.998465 C14.65491,15.998465 15.99801,14.655365 15.99801,12.998665 C15.99801,11.341865 14.65491,9.998765 12.99811,9.998765 Z" id="Shape"></path>
                    </g>
                </g>
            </g>
        </g>
    </g>
</svg>