<?xml version="1.0" encoding="UTF-8"?>
<svg width="30px" height="28px" viewBox="0 0 30 28" version="1.1" xmlns="http://www.w3.org/2000/svg" xmlns:xlink="http://www.w3.org/1999/xlink">
    <title>Shape</title>
    <g id="Latest-Landing" stroke="none" stroke-width="1" fill="none" fill-rule="evenodd">
        <g id="Artboard" transform="translate(-608.000000, -6417.000000)" fill="#FFFFFF">
            <g id="Price-Table" transform="translate(320.000000, 5828.000000)">
                <g id="Group-20" transform="translate(100.000000, 422.000000)">
                    <path d="M202.8784,167.770508 L210.8087,168.58 L217.486,177.3786 L202.8865,194.3062 L188.273193,177.3837 L194.85158,168.57986 L202.8784,167.770508 Z M194.22049,172.76571 L194.0354,176.33839 L191.55091,176.33839 L194.22049,172.76571 Z M191.74015,178.3384 L198.2053,185.8252 L194.37339,178.3384 L191.74015,178.3384 Z M196.62013,178.3384 L202.8861,190.5808 L209.152,178.3384 L196.62013,178.3384 Z M211.3987,178.3384 L207.5767,185.8058 L214.0172,178.3384 L211.3987,178.3384 Z M214.1859,176.33839 L211.7237,176.33839 L211.4907,172.78694 L214.1859,176.33839 Z M209.3323,170.43969 L205.406,170.0389 L209.6043,174.584 L209.3323,170.43969 Z M208.5022,176.33839 L202.8786,170.25026 L197.26672,176.33839 L208.5022,176.33839 Z M196.1269,174.62405 L196.34369,170.43955 L200.357,170.03488 L196.1269,174.62405 Z" id="Shape"></path>
                </g>
            </g>
        </g>
    </g>
</svg>