<?xml version="1.0" encoding="UTF-8"?>
<svg width="31px" height="31px" viewBox="0 0 31 31" version="1.1" xmlns="http://www.w3.org/2000/svg" xmlns:xlink="http://www.w3.org/1999/xlink">
    <title>Svg</title>
    <g id="Latest-Landing" stroke="none" stroke-width="1" fill="none" fill-rule="evenodd">
        <g id="Artboard" transform="translate(-555.000000, -6415.000000)" fill="#FFFFFF">
            <g id="Price-Table" transform="translate(320.000000, 5828.000000)">
                <g id="Group-20" transform="translate(100.000000, 422.000000)">
                    <g id="Svg" transform="translate(135.609375, 165.289307)">
                        <path d="M-1.39621648e-12,0 L15.077525,0 L21.725125,6.647543 L21.725125,9.181833 L19.725125,9.181833 L19.725125,8.061753 L13.663325,8.061753 L13.663325,2 L2,2 L2,28 L19.725125,28 L19.725125,22.676193 L21.725125,22.676193 L21.725125,30 L-1.39621648e-12,30 L-1.39621648e-12,0 Z M15.663325,3.414213 L18.310925,6.061753 L15.663325,6.061753 L15.663325,3.414213 Z" id="Shape"></path>
                        <path d="M5.539375,20.102893 C5.259315,20.102893 5.019255,20.004393 4.819205,19.807493 C4.619155,19.607393 4.520675,19.367393 4.523755,19.087293 C4.520675,18.810293 4.619155,18.573293 4.819205,18.376393 C5.019255,18.179393 5.259315,18.080893 5.539375,18.080893 C5.813285,18.080893 6.050265,18.179393 6.250315,18.376393 C6.450365,18.573293 6.551925,18.810293 6.555005,19.087293 C6.551925,19.367393 6.450365,19.607393 6.250315,19.807493 C6.050265,20.004393 5.813285,20.102893 5.539375,20.102893 Z" id="Path" fill-rule="nonzero"></path>
                        <path d="M13.884825,14.784693 L12.361425,14.950893 C12.296725,14.716993 12.158225,14.510793 11.945925,14.332293 C11.736625,14.153793 11.439625,14.064593 11.054925,14.064593 C10.707125,14.064593 10.414725,14.139993 10.177825,14.290793 C9.943925,14.441593 9.828425,14.636993 9.831525,14.877093 C9.828425,15.083293 9.903825,15.252493 10.057725,15.384893 C10.214725,15.514093 10.473225,15.618793 10.833325,15.698793 L12.042825,15.957293 C13.369325,16.246593 14.034125,16.886793 14.037125,17.877793 C14.037125,18.323993 13.907925,18.717993 13.649325,19.059593 C13.390825,19.398093 13.033825,19.662793 12.578325,19.853593 C12.122825,20.044393 11.599625,20.139893 11.008725,20.139893 C10.137725,20.139893 9.439125,19.956693 8.912865,19.590493 C8.386585,19.224293 8.071125,18.716393 7.966485,18.067093 L9.596125,17.910093 C9.740725,18.556393 10.210125,18.879593 11.004125,18.879593 C11.401125,18.879593 11.719725,18.799493 11.959725,18.639493 C12.202925,18.476393 12.324425,18.273293 12.324425,18.030093 C12.324425,17.633093 12.005925,17.363793 11.368825,17.222193 L10.159325,16.968293 C9.479125,16.826793 8.975955,16.588193 8.649725,16.252793 C8.323495,15.914193 8.161925,15.486393 8.164995,14.969393 C8.164995,14.532393 8.285025,14.153793 8.525085,13.833693 C8.765145,13.510593 9.100605,13.261293 9.531525,13.085893 C9.962325,12.907393 10.462425,12.818093 11.031825,12.818093 C11.862825,12.818093 12.516825,12.996593 12.993825,13.353593 C13.473925,13.707593 13.770925,14.184593 13.884825,14.784693 Z" id="Path" fill-rule="nonzero"></path>
                        <polygon id="Path" fill-rule="nonzero" points="21.749025 12.910493 19.223725 20.001393 17.377225 20.001393 14.851925 12.910493 16.633925 12.910493 18.263525 18.177893 18.337425 18.177893 19.971625 12.910493"></polygon>
                        <path d="M25.748025,22.780493 C24.846225,22.780493 24.136825,22.606593 23.619825,22.258793 C23.105825,21.914093 22.771925,21.500193 22.618025,21.016993 L24.123025,20.652293 C24.224525,20.846193 24.400025,21.038493 24.649325,21.229293 C24.898525,21.420193 25.274025,21.515593 25.775725,21.515593 C26.252725,21.515593 26.645125,21.401693 26.952925,21.173893 C27.263725,20.946193 27.419125,20.578393 27.419125,20.070593 L27.419125,18.727193 L27.336025,18.727193 C27.249925,18.899593 27.123725,19.076493 26.957525,19.258093 C26.794425,19.439693 26.577425,19.591993 26.306625,19.715093 C26.038825,19.838193 25.701825,19.899793 25.295625,19.899793 C24.750825,19.899793 24.256925,19.772093 23.813725,19.516593 C23.373625,19.258093 23.022725,18.871893 22.761125,18.357893 C22.502625,17.843893 22.373325,17.202193 22.373325,16.432793 C22.373325,15.654193 22.502625,14.997093 22.761125,14.461593 C23.022725,13.922993 23.375125,13.515193 23.818325,13.238193 C24.261525,12.958193 24.755425,12.818093 25.300225,12.818093 C25.718725,12.818093 26.061925,12.888893 26.329725,13.030493 C26.600525,13.168993 26.814425,13.336693 26.971325,13.533693 C27.131425,13.727593 27.253025,13.910693 27.336025,14.082993 L27.428425,14.082993 L27.428425,12.910493 L29.076525,12.910493 L29.076525,20.116793 C29.076525,20.710793 28.931825,21.204693 28.642525,21.598693 C28.353225,21.995693 27.957725,22.291093 27.456125,22.484993 C26.957525,22.681993 26.388125,22.780493 25.748025,22.780493 Z M25.761825,18.588693 C26.294325,18.588693 26.705125,18.397893 26.994425,18.016293 C27.283725,17.631593 27.428425,17.100693 27.428425,16.423593 C27.428425,15.752693 27.285325,15.212493 26.999025,14.803193 C26.712825,14.393893 26.300425,14.189193 25.761825,14.189193 C25.204825,14.189193 24.784725,14.401593 24.501525,14.826293 C24.218425,15.247893 24.076825,15.780393 24.076825,16.423593 C24.076825,17.076093 24.219925,17.600793 24.506125,17.997793 C24.792425,18.391693 25.210925,18.588693 25.761825,18.588693 Z" id="Shape" fill-rule="nonzero"></path>
                    </g>
                </g>
            </g>
        </g>
    </g>
</svg>