<?xml version="1.0" encoding="UTF-8"?>
<svg width="143px" height="33px" viewBox="0 0 143 33" version="1.1" xmlns="http://www.w3.org/2000/svg" xmlns:xlink="http://www.w3.org/1999/xlink">
    <title>Group 9</title>
    <g id="Latest-Landing" stroke="none" stroke-width="1" fill="none" fill-rule="evenodd">
        <g id="Artboard" transform="translate(-423.000000, -6250.000000)">
            <g id="Price-Table" transform="translate(320.000000, 5828.000000)">
                <g id="Group-20" transform="translate(100.000000, 422.000000)">
                    <g id="Group-9" transform="translate(3.000000, 0.000000)">
                        <rect id="Rectangle" fill="#02C0C0" x="3.63797881e-12" y="0" width="142.6432" height="33" rx="10.0352"></rect>
                        <text id="Zwosh!" font-family="SpaceGrotesk-Bold, Space Grotesk" font-size="22.9376" font-weight="bold" letter-spacing="-0.745303106" fill="#ADFF89">
                            <tspan x="60.2766389" y="25">Zwosh!</tspan>
                        </text>
                        <g id="Group-30" transform="translate(7.753010, 7.299647)" fill-rule="nonzero" stroke="#0F052E" stroke-linecap="round" stroke-linejoin="round" stroke-width="0.5">
                            <path d="M47.8117725,0.893767579 C46.9840358,0.336479473 37.8824439,-0.918589541 33.1326165,1.12792225 C28.3827891,3.17443403 27.0047888,4.28901025 26.1325627,4.70697633 C25.4113663,5.05820833 24.49348,5.08045302 24.1879082,5.08045302 L23.9888767,5.08045302 C23.687988,5.08045302 22.7654186,5.05235446 22.0442222,4.70697633 C21.1719961,4.28901025 19.7939959,3.17326326 15.0441685,1.12792225 C10.2943411,-0.917418767 1.19743225,0.336479473 0.36501241,0.893767579 C0.00324345012,1.13845921 -0.0412459365,1.75545675 0.0266589168,2.37011275 C0.119205675,3.205858 0.399359204,4.00989862 0.84620025,4.72219638 C0.98457308,4.9462945 1.05756465,5.20460356 1.05693945,5.46797899 L1.05693945,5.4808575 C1.05693945,5.4808575 0.77946617,13.0241501 5.0762043,16.7706248 L5.0762043,16.7706248 C5.52858849,17.1286134 6.0143542,17.4422636 6.52679246,17.7072434 C6.9959606,17.9567874 7.49153963,18.1531341 8.00430841,18.2926301 C10.1526775,18.8581136 13.0807816,19.264372 15.8894668,18.0327184 C20.0222967,16.2203613 21.1708253,12.0851899 21.7222596,9.94735777 C22.1812027,8.16661153 23.5182259,8.03080182 23.9467289,8.03431414 L24.2206899,8.03431414 C24.6527052,8.03431414 25.9897284,8.16661153 26.4451592,9.94735777 C26.9965934,12.0851899 28.1451221,16.2203613 32.2779519,18.0327184 C35.0878079,19.264372 38.0147413,18.8581136 40.1631103,18.2926301 C40.6758791,18.1531341 41.1714581,17.9567874 41.6406263,17.7072434 C42.1530645,17.4422636 42.6388303,17.1286134 43.0912144,16.7706248 L43.0912144,16.7706248 C47.3879526,13.0241501 47.1198455,5.4808575 47.1198455,5.4808575 L47.1198455,5.46797899 C47.1187818,5.20454352 47.1918068,4.94611621 47.3305847,4.72219638 C47.7774257,4.00989862 48.0575793,3.205858 48.150126,2.37011275 C48.2180309,1.75545675 48.1735415,1.13845921 47.8117725,0.893767579 Z M17.1843421,15.6314623 C14.7327428,17.7259758 8.1366058,17.973009 5.68617721,15.142079 C1.97365497,10.8453409 2.57894478,5.86018806 2.89505358,4.28198561 C2.97010718,3.90168772 3.17751369,3.5602966 3.48044025,3.31843915 C3.94757881,2.95549942 4.76360782,2.48719009 5.99760292,2.35138038 C8.09211641,2.12776267 12.5047611,1.68286881 17.7627041,4.17778678 C17.7627041,4.17778678 19.813899,5.02542667 20.1698141,7.56483403 C20.5257292,10.1042414 19.1360213,13.9607688 17.1843421,15.6314623 Z M42.4906077,15.142079 C40.0401791,17.9788628 33.4440422,17.7259758 30.9924428,15.6314623 C29.0407637,13.9607688 27.6498849,10.1054122 28.0081416,7.56483403 C28.3663982,5.0242559 30.4152516,4.17778678 30.4152516,4.17778678 C35.6731946,1.68286881 40.0858393,2.12776267 42.1803528,2.35138038 C43.4131771,2.48719009 44.2292061,2.95549942 44.6916616,3.31843915 C44.9945881,3.5602966 45.2019947,3.90168772 45.2770483,4.28198561 C45.5978401,5.86018806 46.20313,10.8453409 42.4906077,15.142079 L42.4906077,15.142079 Z" id="rim_glasses" fill="#1C1E63"></path>
                            <path d="M17.1843421,15.6314623 C14.7327428,17.7259758 8.1366058,17.973009 5.68617721,15.142079 C4.20959109,13.4428755 3.22863354,11.37039 2.8505642,9.1512319 C2.57243261,7.53868294 2.58750378,5.8891833 2.89505358,4.28198561 C2.97010718,3.90168772 3.17751369,3.5602966 3.48044025,3.31843915 C3.94757881,2.95549942 4.76360782,2.48719009 5.99760292,2.35138038 C6.23175758,2.32679414 6.48464462,2.29986635 6.76797177,2.27410934 C9.06971214,2.06571169 13.0807816,1.95682977 17.7627041,4.17778678 C18.1421926,4.35471711 18.4905197,4.59194328 18.7941555,4.88025078 C19.5532685,5.58470715 20.0402664,6.53383509 20.1698141,7.56132171 C20.2517953,8.22916897 20.242342,8.90507545 20.1417156,9.57036875 C19.8267775,11.8311321 18.6665412,14.3635148 17.1843421,15.6314623 Z" id="Path"></path>
                            <path d="M20.1417156,9.57388107 C19.8267775,11.8311321 18.6665412,14.3635148 17.1843421,15.6314623 C14.7327428,17.7259758 8.1366058,17.973009 5.68617721,15.142079 C4.20959109,13.4428755 3.22863354,11.37039 2.8505642,9.1512319 C2.57243261,7.53868294 2.58750378,5.8891833 2.89505358,4.28198561 C2.97010718,3.90168772 3.17751369,3.5602966 3.48044025,3.31843915 C3.94757881,2.95549942 4.76360782,2.48719009 5.99760292,2.35138038 C6.23175758,2.32679414 6.48464462,2.29986635 6.76797177,2.27410934 C9.06971214,2.06571169 13.0807816,1.95682977 17.7627041,4.17778678 C18.1421926,4.35471711 18.4905197,4.59194328 18.7941555,4.88025078 C19.5532685,5.58470715 20.0402664,6.53383509 20.1698141,7.56132171 C20.2521164,8.23032554 20.2426629,8.9074357 20.1417156,9.57388107 L20.1417156,9.57388107 Z" id="Path" fill="#FFE372"></path>
                            <path d="M20.1417324,9.5200255 L20.1417324,9.57388107 C19.8267775,11.8311321 18.6665412,14.3635148 17.1843421,15.6314623 C14.7327428,17.7259758 8.1366058,17.973009 5.68617721,15.142079 C4.20959109,13.4428755 3.22863354,11.37039 2.8505642,9.1512319 C2.96757176,6.36029075 4.42700253,3.79821771 6.76797177,2.27410934 C9.06971214,2.06571169 13.0807816,1.95682977 17.7627041,4.17778678 C18.1421926,4.35471711 18.4905197,4.59194328 18.7941555,4.88025078 C19.6773326,6.26636387 20.1449639,7.87646205 20.1417324,9.5200255 Z" id="Path" fill="#FF78B0"></path>
                            <circle id="Oval" fill="#6CD6FF" cx="11.4920422" cy="9.5200255" r="6.78463147"></circle>
                            <circle id="Oval" fill="#FF4685" cx="11.5283361" cy="9.70266614" r="4.80017067"></circle>
                            <circle id="Oval" fill="#1EE79C" cx="11.4920422" cy="9.70266614" r="2.95151957"></circle>
                            <circle id="Oval" fill="#FFE372" cx="11.4920422" cy="9.70266614" r="1.27028907"></circle>
                            <path d="M13.8733951,4.45994315 C14.0786655,4.58622051 14.269471,4.73462475 14.442391,4.90249547" id="Path"></path>
                            <path d="M11.4393574,3.82070091 C12.1208433,3.81357493 12.7961954,3.95000163 13.4214766,4.22110539" id="Path"></path>
                            <path d="M11.4393574,9.02127606 C11.4393574,9.02127606 12.1722615,9.00488523 12.1722615,9.70383691" id="line-2"></path>
                            <path d="M7.22223182,13.6282691 C7.90760041,14.3878288 8.77566581,14.959688 9.74407758,15.2895965" id="Path"></path>
                            <path d="M6.51859705,12.6541857 C6.65229771,12.899589 6.80911161,13.1316736 6.98690638,13.3472835" id="Path"></path>
                            <path d="M28.0338986,9.57388107 C27.9340504,8.90848124 27.925385,8.23257495 28.0081416,7.56483403 C28.1376893,6.53734741 28.6246872,5.58821947 29.3838003,4.8837631 C29.687436,4.5954556 30.0357631,4.35822943 30.4152516,4.1812991 C35.0983449,1.95682977 39.1082436,2.0739071 41.4099839,2.27762166 C41.6933111,2.30337867 41.9508812,2.33030646 42.1803528,2.3548927 C43.4120063,2.48719009 44.2280353,2.95549942 44.6904908,3.31843915 C44.9934174,3.5602966 45.2008239,3.90168772 45.2758775,4.28198561 C45.5834273,5.8891833 45.5984984,7.53868294 45.3203669,9.1512319 C44.9422975,11.37039 43.96134,13.4428755 42.4847539,15.142079 C40.0343253,17.9788628 33.4381883,17.7259758 30.9865889,15.6314623 C29.509073,14.3635148 28.3488366,11.8311321 28.0338986,9.57388107 Z" id="Path"></path>
                            <path d="M28.0338986,9.57388107 C28.3488366,11.8311321 29.509073,14.3635148 30.991272,15.6314623 C33.4428714,17.7259758 40.0390084,17.973009 42.4894369,15.142079 C43.9660231,13.4428755 44.9469806,11.37039 45.32505,9.1512319 C45.6031815,7.53868294 45.5881104,5.8891833 45.2805606,4.28198561 C45.205507,3.90168772 44.9981005,3.5602966 44.6951739,3.31843915 C44.2280353,2.95549942 43.4120063,2.48719009 42.1744989,2.35138038 C41.9403443,2.32679414 41.6874572,2.29986635 41.4041301,2.27410934 C39.1023897,2.06571169 35.0913203,1.95682977 30.4093977,4.17778678 C30.0299092,4.35471711 29.6815821,4.59194328 29.3779464,4.88025078 C28.6202651,5.58649375 28.1353303,6.53688313 28.0081416,7.56483403 C27.925385,8.23257495 27.9340504,8.90848124 28.0338986,9.57388107 L28.0338986,9.57388107 Z" id="Path" fill="#FFE372"></path>
                            <path d="M28.0338818,9.5200255 L28.0338818,9.57388107 C28.3488366,11.8311321 29.509073,14.3635148 30.991272,15.6314623 C33.4428714,17.7259758 40.0390084,17.973009 42.4894369,15.142079 C43.9660231,13.4428755 44.9469806,11.37039 45.32505,9.1512319 C45.2080424,6.36029075 43.7486116,3.79821771 41.4076424,2.27410934 C39.105902,2.06571169 35.0948326,1.95682977 30.41291,4.17778678 C30.0334215,4.35471711 29.6850944,4.59194328 29.3814587,4.88025078 C28.4982816,6.26636387 28.0306502,7.87646205 28.0338818,9.5200255 Z" id="Path" fill="#FF78B0"></path>
                            <circle id="Oval" fill="#6CD6FF" cx="36.683572" cy="9.5200255" r="6.78463147"></circle>
                            <circle id="Oval" fill="#FF4685" cx="36.647278" cy="9.70266614" r="4.80017067"></circle>
                            <circle id="Oval" fill="#1EE79C" cx="36.683572" cy="9.70266614" r="2.95151957"></circle>
                            <circle id="Oval" fill="#FFE372" cx="36.683572" cy="9.70266614" r="1.27028907"></circle>
                            <path d="M39.2990796,4.55828811 C39.5042267,4.68519323 39.6950072,4.83397061 39.8680755,5.00201121" id="Path"></path>
                            <path d="M36.8638711,3.91904587 C37.5457309,3.91196533 38.2214556,4.04838672 38.8471611,4.31945035" id="Path"></path>
                            <path d="M32.3400029,13.6973448 C33.0263542,14.4571332 33.8957161,15.0286469 34.865361,15.3575013" id="Path"></path>
                            <path d="M31.6375389,12.7232613 C31.7708679,12.9688905 31.9277052,13.2010097 32.1058483,13.4163592" id="Path"></path>
                            <path d="M36.497419,9.02127606 C36.497419,9.02127606 37.2303231,9.00488523 37.2303231,9.70383691" id="line-6"></path>
                        </g>
                    </g>
                </g>
            </g>
        </g>
    </g>
</svg>