<?xml version="1.0" encoding="UTF-8"?>
<svg width="347px" height="325px" viewBox="0 0 347 325" version="1.1" xmlns="http://www.w3.org/2000/svg" xmlns:xlink="http://www.w3.org/1999/xlink">
    <title>5</title>
    <g id="Latest-Landing" stroke="none" stroke-width="1" fill="none" fill-rule="evenodd" stroke-linecap="round" stroke-linejoin="round">
        <g id="Group" transform="translate(23.000000, 15.000000)" fill-rule="nonzero" stroke="#0F052E" stroke-width="1.5">
            <g id="Shapes-/-three-dimensional-square-with-a-hole-inside" transform="translate(150.000000, 150.000000) rotate(20.000000) translate(-150.000000, -150.000000) ">
                <g id="Shapes-/-three-dimensional-square-with-a-hole-inside-(4)" transform="translate(10.000000, -4.000000)">
                    <polygon id="pink_part" fill="#FF78B0" points="229.22 92.31 229.22 225.43 175.6 191.35 175.6 99.38"></polygon>
                    <polygon id="yellow_part" fill="#FFFE9E" points="229.22 225.43 105.97 242.31 105.97 201.01 175.6 191.35"></polygon>
                    <path d="M279.23,30.09 L54.82,61.48 L1.14,30.28 C1.32287511,30.1036849 1.565997,30.0035759 1.82,30 L225.05,0.75 L279.23,30.09 Z" id="light_blue_rectangle" fill="#7AF6FF"></path>
                    <path d="M54.82,61.48 L54.82,306.25 L0.749800964,273.7 L0.749800964,31.16 C0.743716775,30.8234766 0.886465536,30.5013769 1.14,30.28 L54.82,61.48 Z" id="blue_rectangle" fill="#49A5FF"></path>
                    <polyline id="line" points="249.75 14.13 27.79 45.77 27.79 289.97"></polyline>
                    <path d="M54.82,61.48 L54.82,306.25 L279.23,272.53 L279.23,30.09 L54.82,61.48 Z M229.22,225.48 L106,242.31 L106,108.58 L175.63,99.38 L229.25,92.31 L229.22,225.48 Z" id="white_square" fill="#FFFFFF"></path>
                    <g id="texture" transform="translate(63.000000, 48.000000)">
                        <line x1="135.61" y1="28.89" x2="143.2" y2="35.56" id="Path"></line>
                        <line x1="180.59" y1="66.87" x2="188.18" y2="73.53" id="Path"></line>
                        <line x1="162.42" y1="11.03" x2="170.02" y2="17.7" id="Path"></line>
                        <line x1="197.44" y1="0.29" x2="205.04" y2="6.96" id="Path"></line>
                        <line x1="195.8" y1="42.72" x2="203.39" y2="49.39" id="Path"></line>
                        <line x1="77.78" y1="39.39" x2="85.37" y2="46.06" id="Path"></line>
                        <line x1="197.44" y1="104.05" x2="205.04" y2="110.72" id="Path"></line>
                        <line x1="100.23" y1="11.21" x2="107.82" y2="17.87" id="Path"></line>
                        <line x1="45.11" y1="18.89" x2="52.71" y2="25.56" id="Path"></line>
                        <line x1="179.19" y1="126.92" x2="186.78" y2="133.59" id="Path"></line>
                        <line x1="17.49" y1="54.72" x2="25.08" y2="61.38" id="Path"></line>
                        <line x1="17.49" y1="91.51" x2="25.08" y2="98.17" id="Path"></line>
                        <line x1="0.85" y1="22.23" x2="8.45" y2="28.89" id="Path"></line>
                        <line x1="0.85" y1="113.5" x2="8.45" y2="120.17" id="Path"></line>
                        <line x1="25.08" y1="136.68" x2="32.68" y2="143.35" id="Path"></line>
                        <line x1="195.8" y1="153.18" x2="203.39" y2="159.85" id="Path"></line>
                        <line x1="13.69" y1="160.49" x2="21.29" y2="167.15" id="Path"></line>
                        <line x1="6.17" y1="196.5" x2="13.77" y2="203.17" id="Path"></line>
                        <line x1="176.79" y1="180.33" x2="184.39" y2="187" id="Path"></line>
                        <line x1="195.8" y1="209.83" x2="203.39" y2="216.5" id="Path"></line>
                        <line x1="34.14" y1="213.17" x2="41.73" y2="219.83" id="Path"></line>
                        <line x1="162.42" y1="203.17" x2="170.02" y2="209.83" id="Path"></line>
                        <line x1="119.1" y1="193.17" x2="126.69" y2="199.83" id="Path"></line>
                        <line x1="6.17" y1="236.48" x2="13.77" y2="243.15" id="Path"></line>
                        <line x1="141.38" y1="219.79" x2="148.98" y2="226.46" id="Path"></line>
                        <line x1="73.98" y1="206.5" x2="81.58" y2="213.17" id="Path"></line>
                        <line x1="104.03" y1="223.13" x2="111.62" y2="229.79" id="Path"></line>
                        <line x1="60.1" y1="233.15" x2="67.7" y2="239.82" id="Path"></line>
                    </g>
                </g>
            </g>
        </g>
    </g>
</svg>