<?xml version="1.0" encoding="UTF-8"?>
<svg width="309px" height="342px" viewBox="0 0 309 342" version="1.1" xmlns="http://www.w3.org/2000/svg" xmlns:xlink="http://www.w3.org/1999/xlink">
    <title>7</title>
    <g id="Latest-Landing" stroke="none" stroke-width="1" fill="none" fill-rule="evenodd" stroke-linecap="round" stroke-linejoin="round">
        <g id="Group" transform="translate(4.000000, 21.000000)" fill-rule="nonzero" stroke="#0F052E" stroke-width="1.5">
            <g id="Shapes-/-triangle-with-lines" transform="translate(-4.000000, -21.000000)">
                <polygon id="half_of_triangle" fill="#49A5FF" points="154.34 340.8 0.75 237.06 154.34 0.75"></polygon>
                <polyline id="half_of_triangle-2" fill="#FF78B0" points="154.34 25.2 154.34 340.8 307.93 237.06 165.75 18.3"></polyline>
                <g id="lines" transform="translate(154.000000, 0.000000)">
                    <polyline id="Path" fill="#FF78B0" points="11.75 18.3 0.34 0.75 0.34 25.2"></polyline>
                    <line x1="0.34" y1="303.51" x2="137.08" y2="211.14" id="Path"></line>
                    <line x1="0.34" y1="269.16" x2="121.57" y2="187.27" id="Path"></line>
                    <line x1="87.4" y1="175.9" x2="106.01" y2="163.33" id="Path"></line>
                    <line x1="0.34" y1="234.71" x2="77.13" y2="182.84" id="Path"></line>
                    <line x1="0.34" y1="199.31" x2="90.02" y2="138.73" id="Path"></line>
                    <line x1="0.34" y1="164.86" x2="73.92" y2="115.15" id="Path"></line>
                    <line x1="0.62" y1="129.47" x2="58.56" y2="90.33" id="Path"></line>
                    <line x1="0.34" y1="95.21" x2="43" y2="66.39" id="Path"></line>
                    <line x1="0.33" y1="60.47" x2="27.31" y2="42.25" id="Path"></line>
                    <line x1="0.57" y1="25.66" x2="11.66" y2="18.17" id="Path"></line>
                </g>
            </g>
        </g>
    </g>
</svg>