<?xml version="1.0" encoding="UTF-8"?>
<svg width="82px" height="103px" viewBox="0 0 82 103" version="1.1" xmlns="http://www.w3.org/2000/svg" xmlns:xlink="http://www.w3.org/1999/xlink">
    <title>Figma</title>
    <g id="Latest-Landing" stroke="none" stroke-width="1" fill="none" fill-rule="evenodd">
        <g id="Artboard" transform="translate(-876.000000, -2174.000000)">
            <g id="Figma" transform="translate(877.000000, 2175.000000)">
                <g id="Group" fill="#2A2A76" stroke="#FFFFFF" stroke-width="1.244432">
                    <path d="M21.7012494,0 L79.7075472,0 L79.7075472,101.131579 L0.00814372191,101.131579 L0,21.4210856 M21.7012494,0 L21.7012494,21.4210856 L0,21.4210856 M21.7012494,0 L0,21.4210856" id="Shape"></path>
                </g>
                <g id="Group" transform="translate(28.066038, 32.025000)">
                    <path d="M14.5943396,14.6089176 L14.5943396,29.2147666 L7.39546628,29.2147666 C4.76814191,29.2588283 2.32137964,27.8766034 0.994875933,25.598939 C-0.331625311,23.3213347 -0.331625311,20.5023495 0.994875933,18.2246851 C2.32137964,15.9470207 4.76814191,14.5648559 7.39546628,14.6089176 L14.5943396,14.6089176 Z" id="Path" stroke="#0F052E" stroke-width="0.5" fill="#A955FF" fill-rule="nonzero" stroke-linecap="round" stroke-linejoin="round"></path>
                    <path d="M27.2412339,2.9558385 C28.8273428,5.17256707 29.0718687,8.12553458 27.8733879,10.589496 C26.6748474,13.0535176 24.2377575,14.6078947 21.5733737,14.6078947 L14.5943396,14.6078947 L14.5943396,0 L21.5733737,0 C23.1681879,-0.00255785674 24.7163747,0.556729598 25.9635699,1.5859665" id="Path" fill="#FFB4D3" fill-rule="nonzero"></path>
                    <path d="M27.2412339,2.9558385 C28.8273428,5.17256707 29.0718687,8.12553458 27.8733879,10.589496 C26.6748474,13.0535176 24.2377575,14.6078947 21.5733737,14.6078947 L14.5943396,14.6078947 L14.5943396,0 L21.5733737,0 C23.1681879,-0.00255785674 24.7163747,0.556729598 25.9635699,1.5859665" id="Path" stroke="#0F052E" stroke-width="0.5" stroke-linecap="round" stroke-linejoin="round"></path>
                    <path d="M25.259434,3.93289474 C25.4856345,4.27926303 25.6741812,4.65667714 25.8207547,5.05657895" id="Path" stroke="#0F052E" stroke-width="0.5" stroke-linecap="round" stroke-linejoin="round"></path>
                    <path d="M21.8915094,1.68552632 C22.7087727,1.85583717 23.4783117,2.24095583 24.1367925,2.80921053" id="Path" stroke="#0F052E" stroke-width="0.5" stroke-linecap="round" stroke-linejoin="round"></path>
                    <path d="M14.5943396,0 L14.5943396,14.6078947 L7.61424793,14.6078947 C3.71901336,14.6078947 0.561320755,11.3378083 0.561320755,7.30398348 C0.561320755,3.27009241 3.71901336,0 7.61424793,0 L14.5943396,0 Z" id="Path" stroke="#0F052E" stroke-width="0.5" fill="#FF4685" fill-rule="nonzero" stroke-linecap="round" stroke-linejoin="round"></path>
                    <path d="M8.41134879,5.91307021 C8.12805822,5.97651236 7.06247947,6.31907496 6.7483736,7.85648546 C6.74633092,7.86210533 6.74137013,7.86578947 6.73582571,7.86578947 C6.73033966,7.86578947 6.72537886,7.86210533 6.72333618,7.85648546 C6.41693414,6.31907496 5.34362822,5.97651236 5.06036683,5.91307021 C5.05524262,5.91082226 5.05188679,5.90538972 5.05188679,5.89933274 C5.05188679,5.89327576 5.05524262,5.88784322 5.06036683,5.88559527 C5.34362822,5.82215312 6.40923032,5.47959051 6.72333618,3.942205 C6.72537886,3.93658512 6.73033966,3.93289474 6.73582571,3.93289474 C6.74137013,3.93289474 6.74633092,3.93658512 6.7483736,3.942205 C7.05477564,5.47959051 8.12805822,5.82215312 8.41134879,5.88559527 C8.41648467,5.88784322 8.41981132,5.89327576 8.41981132,5.89933274 C8.41981132,5.90538972 8.41648467,5.91082226 8.41134879,5.91307021 Z" id="Path" stroke="#0F052E" stroke-width="0.5" fill="#FFFFFF" fill-rule="nonzero" stroke-linecap="round" stroke-linejoin="round"></path>
                    <path d="M21.6108491,29.2157895 C25.4859271,29.2157895 28.6273585,25.9457076 28.6273585,21.9118724 C28.6273585,17.8779766 25.4859271,14.6078947 21.6108491,14.6078947 C17.735771,14.6078947 14.5943396,17.8779766 14.5943396,21.9118724 C14.5943396,25.9457076 17.735771,29.2157895 21.6108491,29.2157895 Z" id="Path" stroke="#0F052E" stroke-width="0.5" fill="#49A5FF" fill-rule="nonzero" stroke-linecap="round" stroke-linejoin="round"></path>
                    <line x1="20.2075472" y1="21.35" x2="21.8915094" y2="23.5973684" id="Path" stroke="#0F052E" stroke-width="0.5" stroke-linecap="round" stroke-linejoin="round"></line>
                    <line x1="22.4554684" y1="22.4736842" x2="23.0115127" y2="23.5973684" id="Path" stroke="#0F052E" stroke-width="0.5" stroke-linecap="round" stroke-linejoin="round"></line>
                    <line x1="20.2075472" y1="20.2263158" x2="21.8915094" y2="22.4736842" id="Path" stroke="#0F052E" stroke-width="0.5" stroke-linecap="round" stroke-linejoin="round"></line>
                    <line x1="22.4528302" y1="20.2263158" x2="23.5754717" y2="21.35" id="Path" stroke="#0F052E" stroke-width="0.5" stroke-linecap="round" stroke-linejoin="round"></line>
                    <path d="M14.5943396,29.2157895 L14.5943396,36.740919 C14.5932068,40.6521827 11.5321554,43.8225404 7.75578752,43.8236842 C3.89560036,43.8236842 0.645632174,40.673735 0.562951651,36.6879412 C0.5221897,34.723851 1.2469738,32.8255014 2.57370167,31.4214703 C3.90042955,30.0174393 5.71727264,29.226084 7.61407163,29.2259636 L14.5943396,29.2157895 Z" id="Path" stroke="#0F052E" stroke-width="0.5" fill="#00F6D3" fill-rule="nonzero" stroke-linecap="round" stroke-linejoin="round"></path>
                    <path d="M2.8077024,35.9578947 C2.78150094,34.9446845 3.22492712,33.9662062 4.03449476,33.2509045 C4.33424209,32.985623 4.67719302,32.7617761 5.05188679,32.5868421" id="Path" stroke="#0F052E" stroke-width="0.5" stroke-linecap="round" stroke-linejoin="round"></path>
                </g>
            </g>
        </g>
    </g>
</svg>