<?xml version="1.0" encoding="UTF-8"?>
<svg width="22px" height="22px" viewBox="0 0 22 22" version="1.1" xmlns="http://www.w3.org/2000/svg" xmlns:xlink="http://www.w3.org/1999/xlink">
    <title>xd</title>
    <g id="Latest-Landing" stroke="none" stroke-width="1" fill="none" fill-rule="evenodd">
        <g id="Artboard" transform="translate(-468.000000, -6420.000000)" fill="#FFFFFF" fill-rule="nonzero">
            <g id="Price-Table" transform="translate(320.000000, 5828.000000)">
                <g id="Group-20" transform="translate(100.000000, 422.000000)">
                    <path d="M48,170 L48,171 L48,192 L70,192 L70,170 L48,170 Z M50,172 L68,172 L68,190 L50,190 L50,172 Z M52,176 L54.5,181 L52,186 L54,186 L55.5,183 L57,186 L59,186 L56.5,181 L59,176 L57,176 L55.5,179 L54,176 L52,176 Z M63,176 L63,180 L61.5,180 C60.130937,180 59,181.130937 59,182.5 L59,183.5 C59,184.869063 60.130937,186 61.5,186 L63,186 L64,186 L65,186 L65,176 L63,176 Z M61.5,182 L63,182 L63,184 L61.5,184 C61.213063,184 61,183.786937 61,183.5 L61,182.5 C61,182.213063 61.213063,182 61.5,182 Z" id="xd"></path>
                </g>
            </g>
        </g>
    </g>
</svg>